<svg xmlns="http://www.w3.org/2000/svg" xmlns:xlink="http://www.w3.org/1999/xlink" width="500" zoomAndPan="magnify" viewBox="0 0 375 374.999991" height="500" preserveAspectRatio="xMidYMid meet" version="1.0"><defs><clipPath id="fe5f7c7471"><path d="M 198.925781 122.332031 L 280.675781 122.332031 L 280.675781 272.332031 L 198.925781 272.332031 Z M 198.925781 122.332031 " clip-rule="nonzero"/></clipPath><clipPath id="ac4223520f"><path d="M 95.613281 191 L 245.613281 191 L 245.613281 272.332031 L 95.613281 272.332031 Z M 95.613281 191 " clip-rule="nonzero"/></clipPath><clipPath id="1f3e6bcc3b"><path d="M 118 126 L 170 126 L 170 170 L 118 170 Z M 118 126 " clip-rule="nonzero"/></clipPath><clipPath id="3ac2bf6162"><path d="M 114.964844 167.34375 L 131.800781 114.457031 L 170.390625 126.742188 L 153.558594 179.628906 Z M 114.964844 167.34375 " clip-rule="nonzero"/></clipPath><clipPath id="3080eadee9"><path d="M 131.84375 114.3125 L 115.011719 167.199219 L 153.605469 179.484375 L 170.4375 126.597656 Z M 131.84375 114.3125 " clip-rule="nonzero"/></clipPath></defs><g clip-path="url(#fe5f7c7471)"><path fill="#737373" d="M 273.390625 122.4375 C 273.546875 122.4375 273.707031 122.441406 273.863281 122.453125 C 274.160156 122.476562 274.453125 122.515625 274.742188 122.578125 C 275.113281 122.65625 275.480469 122.761719 275.832031 122.902344 C 276.210938 123.050781 276.578125 123.238281 276.921875 123.453125 C 277.277344 123.671875 277.609375 123.925781 277.917969 124.210938 C 278.261719 124.527344 278.574219 124.882812 278.847656 125.265625 C 279.101562 125.621094 279.320312 126.007812 279.5 126.40625 C 279.679688 126.808594 279.820312 127.230469 279.917969 127.660156 C 279.988281 127.960938 280.035156 128.265625 280.0625 128.574219 C 280.078125 128.753906 280.085938 128.933594 280.085938 129.113281 C 280.296875 174.589844 280.296875 220.070312 280.085938 265.546875 C 280.085938 265.726562 280.078125 265.90625 280.0625 266.085938 C 280.035156 266.394531 279.988281 266.699219 279.917969 267 C 279.832031 267.390625 279.707031 267.773438 279.550781 268.140625 C 279.378906 268.542969 279.164062 268.933594 278.917969 269.296875 C 278.667969 269.660156 278.378906 270.003906 278.0625 270.3125 C 277.746094 270.621094 277.398438 270.902344 277.023438 271.140625 C 276.699219 271.351562 276.359375 271.535156 276.003906 271.6875 C 275.636719 271.84375 275.253906 271.96875 274.863281 272.054688 C 274.5625 272.125 274.257812 272.171875 273.949219 272.199219 C 273.769531 272.214844 273.589844 272.222656 273.414062 272.222656 C 250.886719 272.328125 228.355469 272.328125 205.832031 272.222656 C 205.652344 272.222656 205.472656 272.214844 205.292969 272.199219 C 204.984375 272.171875 204.679688 272.125 204.378906 272.054688 C 203.988281 271.96875 203.605469 271.84375 203.238281 271.6875 C 202.808594 271.503906 202.398438 271.273438 202.015625 271.007812 C 201.652344 270.75 201.316406 270.460938 201.011719 270.140625 C 200.714844 269.828125 200.445312 269.488281 200.214844 269.128906 C 200 268.789062 199.8125 268.433594 199.660156 268.0625 C 199.511719 267.707031 199.398438 267.335938 199.3125 266.960938 C 199.246094 266.652344 199.199219 266.335938 199.175781 266.019531 C 199.164062 265.863281 199.15625 265.707031 199.15625 265.550781 C 198.921875 220.070312 198.921875 174.589844 199.15625 129.113281 C 199.15625 128.953125 199.164062 128.796875 199.175781 128.640625 C 199.199219 128.324219 199.246094 128.007812 199.3125 127.699219 C 199.402344 127.304688 199.527344 126.914062 199.683594 126.539062 C 199.847656 126.152344 200.046875 125.78125 200.28125 125.433594 C 200.519531 125.074219 200.792969 124.738281 201.09375 124.433594 C 201.398438 124.128906 201.726562 123.851562 202.082031 123.609375 C 202.433594 123.367188 202.808594 123.160156 203.203125 122.988281 C 203.59375 122.820312 204 122.6875 204.417969 122.597656 C 204.71875 122.527344 205.027344 122.484375 205.335938 122.457031 C 205.5 122.445312 205.664062 122.4375 205.828125 122.4375 C 228.351562 122.332031 250.871094 122.402344 273.390625 122.4375 Z M 241.714844 259.28125 L 237.515625 259.28125 C 235.863281 259.28125 234.523438 260.621094 234.523438 262.269531 L 234.523438 266.46875 C 234.523438 268.121094 235.863281 269.460938 237.515625 269.460938 L 241.714844 269.460938 C 243.363281 269.460938 244.703125 268.121094 244.703125 266.46875 L 244.703125 262.269531 C 244.703125 260.621094 243.363281 259.28125 241.714844 259.28125 Z M 240.925781 261.1875 C 241.957031 261.1875 242.796875 262.027344 242.796875 263.058594 L 242.796875 265.683594 C 242.796875 266.714844 241.957031 267.554688 240.925781 267.554688 L 238.300781 267.554688 C 237.269531 267.554688 236.429688 266.714844 236.429688 265.683594 L 236.429688 263.058594 C 236.429688 262.027344 237.269531 261.1875 238.300781 261.1875 Z M 277.722656 132.832031 L 201.535156 132.832031 C 201.472656 174.128906 201.332031 215.421875 201.5 256.722656 L 277.730469 256.722656 C 277.808594 215.425781 277.90625 174.132812 277.730469 132.832031 Z M 252.945312 126.4375 L 226.28125 126.4375 C 225.96875 126.4375 225.710938 126.695312 225.710938 127.011719 L 225.710938 128.152344 C 225.710938 128.46875 225.96875 128.722656 226.28125 128.722656 L 252.945312 128.722656 C 253.261719 128.722656 253.515625 128.46875 253.515625 128.152344 L 253.515625 127.011719 C 253.515625 126.695312 253.261719 126.4375 252.945312 126.4375 Z M 252.945312 126.4375 " fill-opacity="1" fill-rule="evenodd"/></g><g clip-path="url(#ac4223520f)"><path fill="#ffffff" d="M 95.71875 197.867188 C 95.71875 197.707031 95.722656 197.550781 95.734375 197.394531 C 95.757812 197.097656 95.796875 196.804688 95.859375 196.515625 C 95.9375 196.140625 96.042969 195.777344 96.183594 195.421875 C 96.332031 195.042969 96.519531 194.679688 96.734375 194.332031 C 96.953125 193.980469 97.207031 193.648438 97.492188 193.339844 C 97.808594 192.992188 98.164062 192.683594 98.546875 192.410156 C 98.902344 192.15625 99.289062 191.933594 99.6875 191.753906 C 100.089844 191.574219 100.511719 191.433594 100.941406 191.335938 C 101.242188 191.269531 101.546875 191.21875 101.855469 191.195312 C 102.035156 191.179688 102.214844 191.171875 102.394531 191.167969 C 147.871094 190.957031 193.351562 190.957031 238.828125 191.167969 C 239.007812 191.171875 239.1875 191.179688 239.367188 191.195312 C 239.675781 191.21875 239.980469 191.269531 240.28125 191.335938 C 240.671875 191.425781 241.054688 191.550781 241.421875 191.707031 C 241.824219 191.878906 242.214844 192.089844 242.578125 192.339844 C 242.941406 192.589844 243.285156 192.875 243.59375 193.195312 C 243.902344 193.511719 244.183594 193.859375 244.421875 194.230469 C 244.632812 194.554688 244.816406 194.898438 244.96875 195.253906 C 245.125 195.621094 245.25 196 245.335938 196.390625 C 245.40625 196.691406 245.453125 197 245.480469 197.308594 C 245.496094 197.484375 245.503906 197.664062 245.503906 197.84375 C 245.609375 220.371094 245.609375 242.898438 245.503906 265.425781 C 245.503906 265.605469 245.496094 265.785156 245.480469 265.960938 C 245.453125 266.269531 245.40625 266.578125 245.335938 266.878906 C 245.25 267.269531 245.125 267.648438 244.96875 268.015625 C 244.785156 268.445312 244.554688 268.855469 244.289062 269.238281 C 244.03125 269.601562 243.742188 269.941406 243.421875 270.246094 C 243.109375 270.542969 242.769531 270.808594 242.410156 271.042969 C 242.070312 271.257812 241.714844 271.445312 241.34375 271.597656 C 240.988281 271.742188 240.617188 271.859375 240.242188 271.941406 C 239.933594 272.011719 239.617188 272.058594 239.300781 272.082031 C 239.144531 272.09375 238.988281 272.097656 238.832031 272.101562 C 193.351562 272.332031 147.871094 272.332031 102.394531 272.101562 C 102.234375 272.097656 102.078125 272.09375 101.921875 272.082031 C 101.605469 272.058594 101.289062 272.011719 100.980469 271.941406 C 100.585938 271.855469 100.195312 271.730469 99.820312 271.574219 C 99.433594 271.410156 99.0625 271.207031 98.714844 270.976562 C 98.355469 270.738281 98.019531 270.464844 97.714844 270.160156 C 97.410156 269.859375 97.132812 269.527344 96.890625 269.171875 C 96.648438 268.820312 96.441406 268.445312 96.269531 268.054688 C 96.101562 267.664062 95.96875 267.253906 95.878906 266.835938 C 95.808594 266.535156 95.765625 266.230469 95.738281 265.917969 C 95.726562 265.753906 95.71875 265.589844 95.71875 265.425781 C 95.613281 242.90625 95.683594 220.386719 95.71875 197.867188 Z M 232.5625 229.542969 L 232.5625 233.742188 C 232.5625 235.390625 233.902344 236.730469 235.550781 236.730469 L 239.75 236.730469 C 241.402344 236.730469 242.742188 235.390625 242.742188 233.742188 L 242.742188 229.542969 C 242.742188 227.894531 241.402344 226.554688 239.75 226.554688 L 235.550781 226.554688 C 233.902344 226.554688 232.5625 227.894531 232.5625 229.542969 Z M 234.46875 230.328125 C 234.46875 229.296875 235.308594 228.460938 236.339844 228.460938 L 238.964844 228.460938 C 239.996094 228.460938 240.835938 229.296875 240.835938 230.328125 L 240.835938 232.957031 C 240.835938 233.988281 239.996094 234.824219 238.964844 234.824219 L 236.339844 234.824219 C 235.308594 234.824219 234.46875 233.988281 234.46875 232.957031 Z M 106.113281 193.53125 L 106.113281 269.722656 C 147.410156 269.785156 188.703125 269.921875 230.003906 269.757812 L 230.003906 193.527344 C 188.707031 193.445312 147.414062 193.351562 106.113281 193.527344 Z M 99.71875 218.3125 L 99.71875 244.972656 C 99.71875 245.289062 99.976562 245.542969 100.292969 245.542969 L 101.433594 245.542969 C 101.75 245.542969 102.003906 245.289062 102.003906 244.972656 L 102.003906 218.3125 C 102.003906 217.996094 101.75 217.738281 101.433594 217.738281 L 100.292969 217.738281 C 99.976562 217.738281 99.71875 217.996094 99.71875 218.3125 Z M 99.71875 218.3125 " fill-opacity="1" fill-rule="evenodd"/></g><g clip-path="url(#1f3e6bcc3b)"><g clip-path="url(#3ac2bf6162)"><g clip-path="url(#3080eadee9)"><path fill="#ffffff" d="M 121.011719 166.890625 C 120.460938 165.726562 119.820312 162.996094 119.464844 161.082031 C 119.035156 158.765625 118.628906 155.808594 119.539062 153.59375 C 119.863281 152.808594 121.113281 152.570312 121.601562 153.34375 C 122.832031 155.296875 123.085938 158.0625 123.511719 160.335938 C 131.40625 142.410156 148.648438 127.722656 168.574219 126.515625 C 169.789062 126.441406 170.136719 128.117188 168.90625 128.410156 C 150.691406 132.761719 134.539062 145.117188 127.976562 162.734375 C 128.59375 162.554688 129.207031 162.378906 129.820312 162.195312 C 132.300781 161.464844 134.757812 160.488281 137.371094 160.609375 C 139.105469 160.6875 139.765625 163.128906 138.441406 164.164062 C 136.484375 165.699219 134.019531 166.257812 131.691406 167.023438 C 129.332031 167.796875 126.984375 168.632812 124.597656 169.320312 C 122.925781 169.804688 121.5625 168.058594 121.011719 166.890625 Z M 121.011719 166.890625 " fill-opacity="1" fill-rule="nonzero"/></g></g></g></svg>